<svg width="60" height="60" viewBox="0 0 60 60" fill="none" xmlns="http://www.w3.org/2000/svg">
<rect width="60" height="60" rx="30" fill="#F88F35"/>
<g clip-path="url(#clip0_136_513)">
<path fill-rule="evenodd" clip-rule="evenodd" d="M18.0842 23.9625C17.9414 23.6765 17.8741 23.3588 17.8887 23.0396C17.9032 22.7203 17.9992 22.41 18.1674 22.1383C18.3356 21.8665 18.5704 21.6422 18.8497 21.4868C19.1289 21.3313 19.4433 21.2498 19.7629 21.25H35.9567C36.653 21.25 37.3355 21.4439 37.9279 21.81C38.5202 22.176 38.9989 22.6997 39.3104 23.3225L41.8104 28.3225C42.0709 28.8433 42.2065 29.4177 42.2065 30C42.2065 30.5823 42.0709 31.1567 41.8104 31.6775L39.3104 36.6775C38.9988 37.3004 38.5199 37.8243 37.9273 38.1904C37.3348 38.5564 36.6519 38.7502 35.9554 38.75H19.7617C19.4422 38.75 19.128 38.6683 18.8489 38.5128C18.5698 38.3572 18.3351 38.1329 18.167 37.8612C17.999 37.5895 17.9032 37.2793 17.8887 36.9601C17.8741 36.6409 17.9414 36.3234 18.0842 36.0375L20.8229 30.5588C20.9096 30.3853 20.9547 30.194 20.9547 30C20.9547 29.806 20.9096 29.6148 20.8229 29.4413L18.0842 23.9625Z" fill="white"/>
</g>
<defs>
<clipPath id="clip0_136_513">
<rect width="30" height="30" fill="white" transform="translate(15 15)"/>
</clipPath>
</defs>
</svg>
