<svg width="60" height="60" viewBox="0 0 60 60" fill="none" xmlns="http://www.w3.org/2000/svg">
<rect width="60" height="60" rx="30" fill="#F88F35"/>
<g clip-path="url(#clip0_136_497)">
<path fill-rule="evenodd" clip-rule="evenodd" d="M30 17.5C23.0963 17.5 17.5 23.0963 17.5 30C17.5 36.9037 23.0963 42.5 30 42.5C36.9037 42.5 42.5 36.9037 42.5 30C42.5 23.0963 36.9037 17.5 30 17.5ZM30 18.75C30 21.7337 28.8147 24.5952 26.705 26.705C24.5952 28.8147 21.7337 30 18.75 30C21.7337 30 24.5952 31.1853 26.705 33.295C28.8147 35.4048 30 38.2663 30 41.25C30 38.2663 31.1853 35.4048 33.295 33.295C35.4048 31.1853 38.2663 30 41.25 30C38.2663 30 35.4048 28.8147 33.295 26.705C31.1853 24.5952 30 21.7337 30 18.75Z" fill="white"/>
</g>
<defs>
<clipPath id="clip0_136_497">
<rect width="30" height="30" fill="white" transform="translate(15 15)"/>
</clipPath>
</defs>
</svg>
