<svg width="24" height="25" viewBox="0 0 24 25" fill="none" xmlns="http://www.w3.org/2000/svg">
<path fill-rule="evenodd" clip-rule="evenodd" d="M11 2.5C9.67392 2.5 8.40215 3.02678 7.46447 3.96447C6.52678 4.90215 6 6.17392 6 7.5C6 8.82608 6.52678 10.0979 7.46447 11.0355C8.40215 11.9732 9.67392 12.5 11 12.5C12.3261 12.5 13.5979 11.9732 14.5355 11.0355C15.4732 10.0979 16 8.82608 16 7.5C16 6.17392 15.4732 4.90215 14.5355 3.96447C13.5979 3.02678 12.3261 2.5 11 2.5ZM11 13.5C8.605 13.5 6.425 14.194 4.822 15.172C4.022 15.66 3.338 16.236 2.844 16.862C2.358 17.476 2 18.213 2 19C2 19.845 2.411 20.511 3.003 20.986C3.563 21.436 4.302 21.734 5.087 21.942C6.665 22.359 8.771 22.5 11 22.5C11.23 22.5 11.46 22.498 11.685 22.495C11.8525 22.4927 12.0167 22.4484 12.1626 22.3661C12.3085 22.2838 12.4313 22.1662 12.5199 22.024C12.6085 21.8819 12.66 21.7198 12.6696 21.5525C12.6792 21.3853 12.6467 21.2184 12.575 21.067C12.1949 20.2647 11.9985 19.3878 12 18.5C12 17.248 12.383 16.088 13.037 15.127C13.1342 14.9842 13.1928 14.8186 13.207 14.6465C13.2212 14.4743 13.1905 14.3014 13.118 14.1446C13.0455 13.9878 12.9336 13.8524 12.7932 13.7517C12.6528 13.651 12.4888 13.5884 12.317 13.57C11.887 13.524 11.447 13.5 11 13.5ZM18.864 14.497C18.776 14.3459 18.6499 14.2206 18.4983 14.1335C18.3466 14.0463 18.1749 14.0005 18 14.0005C17.8251 14.0005 17.6534 14.0463 17.5017 14.1335C17.3501 14.2206 17.224 14.3459 17.136 14.497L16.226 16.059L14.46 16.441C14.289 16.478 14.1307 16.5592 14.0009 16.6765C13.8711 16.7938 13.7744 16.9431 13.7203 17.1095C13.6663 17.2759 13.6568 17.4535 13.6929 17.6247C13.729 17.7959 13.8094 17.9546 13.926 18.085L15.13 19.433L14.948 21.231C14.9304 21.405 14.9587 21.5806 15.0301 21.7402C15.1015 21.8998 15.2135 22.038 15.355 22.1408C15.4965 22.2436 15.6624 22.3075 15.8363 22.3261C16.0102 22.3448 16.186 22.3175 16.346 22.247L18 21.517L19.654 22.247C19.814 22.3175 19.9898 22.3448 20.1637 22.3261C20.3376 22.3075 20.5035 22.2436 20.645 22.1408C20.7865 22.038 20.8985 21.8998 20.9699 21.7402C21.0413 21.5806 21.0696 21.405 21.052 21.231L20.87 19.432L22.074 18.085C22.1906 17.9546 22.271 17.7959 22.3071 17.6247C22.3432 17.4535 22.3337 17.2759 22.2797 17.1095C22.2256 16.9431 22.1289 16.7938 21.9991 16.6765C21.8693 16.5592 21.711 16.478 21.54 16.441L19.774 16.059L18.864 14.497Z" fill="#F88F35"/>
</svg>
