<svg width="60" height="60" viewBox="0 0 60 60" fill="none" xmlns="http://www.w3.org/2000/svg">
<rect width="60" height="60" rx="30" fill="#219096"/>
<g clip-path="url(#clip0_136_465)">
<path fill-rule="evenodd" clip-rule="evenodd" d="M29.1225 17.7437C29.6158 17.5592 30.1547 17.5351 30.6625 17.675L30.8775 17.7437L39.6275 21.025C40.0712 21.1913 40.4584 21.4804 40.7441 21.8584C41.0298 22.2364 41.2022 22.6878 41.2412 23.16L41.25 23.3662V30.07C41.25 32.0955 40.703 34.0835 39.667 35.824C38.631 37.5645 37.1442 38.993 35.3638 39.9587L35.0312 40.1325L30.8387 42.2287C30.6079 42.344 30.3558 42.4104 30.0981 42.4237C29.8404 42.437 29.5828 42.397 29.3412 42.3062L29.1613 42.2287L24.9688 40.1325C23.157 39.2266 21.6235 37.8483 20.53 36.1432C19.4365 34.4381 18.8237 32.4694 18.7563 30.445L18.75 30.07V23.3662C18.75 22.8926 18.8845 22.4288 19.1379 22.0287C19.3913 21.6286 19.7531 21.3087 20.1812 21.1062L20.3725 21.025L29.1225 17.7437ZM34.2912 25.7862L28.5437 31.5337L26.3338 29.3237C26.0992 29.0893 25.7811 28.9577 25.4496 28.9579C25.118 28.958 24.8 29.0898 24.5656 29.3244C24.3312 29.5589 24.1996 29.877 24.1997 30.2085C24.1999 30.5401 24.3317 30.8581 24.5662 31.0925L27.5712 34.0975C27.6989 34.2252 27.8505 34.3266 28.0174 34.3957C28.1843 34.4648 28.3631 34.5004 28.5437 34.5004C28.7244 34.5004 28.9032 34.4648 29.0701 34.3957C29.237 34.3266 29.3886 34.2252 29.5162 34.0975L36.0588 27.5537C36.1781 27.4384 36.2734 27.3005 36.3389 27.148C36.4044 26.9955 36.4389 26.8315 36.4403 26.6655C36.4418 26.4995 36.4101 26.3349 36.3473 26.1813C36.2844 26.0277 36.1916 25.8881 36.0742 25.7707C35.9569 25.6534 35.8173 25.5606 35.6637 25.4977C35.5101 25.4349 35.3455 25.4032 35.1795 25.4047C35.0135 25.4061 34.8495 25.4406 34.697 25.5061C34.5445 25.5716 34.4066 25.6668 34.2912 25.7862Z" fill="white"/>
</g>
<defs>
<clipPath id="clip0_136_465">
<rect width="30" height="30" fill="white" transform="translate(15 15)"/>
</clipPath>
</defs>
</svg>
