<svg width="60" height="60" viewBox="0 0 60 60" fill="none" xmlns="http://www.w3.org/2000/svg">
<rect width="60" height="60" rx="30" fill="#219096"/>
<g clip-path="url(#clip0_136_483)">
<path d="M31.25 18.75C31.8807 18.7498 32.4882 18.988 32.9507 19.4169C33.4132 19.8457 33.6964 20.4336 33.7437 21.0625L33.75 21.25V41.25H26.25V21.25C26.2498 20.6193 26.488 20.0118 26.9169 19.5493C27.3457 19.0868 27.9336 18.8036 28.5625 18.7563L28.75 18.75H31.25ZM40 25C40.663 25 41.2989 25.2634 41.7678 25.7322C42.2366 26.2011 42.5 26.837 42.5 27.5V38.75C42.5 39.413 42.2366 40.0489 41.7678 40.5178C41.2989 40.9866 40.663 41.25 40 41.25H36.25V25H40ZM23.75 28.75V41.25H20C19.337 41.25 18.7011 40.9866 18.2322 40.5178C17.7634 40.0489 17.5 39.413 17.5 38.75V31.25C17.5 30.587 17.7634 29.9511 18.2322 29.4822C18.7011 29.0134 19.337 28.75 20 28.75H23.75Z" fill="white"/>
</g>
<defs>
<clipPath id="clip0_136_483">
<rect width="30" height="30" fill="white" transform="translate(15 15)"/>
</clipPath>
</defs>
</svg>
