<svg xmlns="http://www.w3.org/2000/svg" width="90" height="71" viewBox="0 0 90 71" fill="none">
    <path
        d="M55.9718 42.4776L53.4978 48.4205L48.7334 59.8622H48.6224L43.8601 48.4205L34.8238 26.7236L33.1751 30.6848L25.7915 48.4205H40.5588L45.3211 59.8622H6.19531L10.9576 48.4205L22.5749 20.5124L25.7552 12.8725L27.4099 8.90523L27.424 8.86487H41.9794L42.1166 9.19783L46.8285 20.5124L55.9718 42.4776Z"
        fill="url(#paint0_linear_160_630)" />
    <path
        d="M84.4993 8.86487L79.6503 20.5124L68.037 48.4205L64.9274 55.8848L63.2747 59.8622H48.7334L53.4978 48.4205L55.9718 42.4776L57.6608 38.4216L65.115 20.5124H50.2065L45.3574 8.86487H84.4993Z"
        fill="url(#paint1_linear_160_630)" />
    <path
        d="M8.87947 64.8525L8.47991 62.5782L7.52341 64.7395H7.47902L6.52655 62.5823L6.12296 64.8525H6.00391L6.44583 62.3542H6.54875L7.4992 64.5235L8.4557 62.3542H8.56064L8.99852 64.8525H8.87947Z"
        fill="black" stroke="black" stroke-width="0.0572085" stroke-miterlimit="10" />
    <path
        d="M10.9555 64.7395V64.8525H9.57324V62.3542H10.9172V62.4673H9.69028V63.4924H10.8244V63.6034H9.69028V64.7395H10.9555Z"
        fill="black" stroke="black" stroke-width="0.0572085" stroke-miterlimit="10" />
    <path
        d="M13.1494 63.6094H12.7862V64.8525H12.6671V63.6094H12.3039L11.2929 64.8525H11.1436L12.201 63.5509L11.2384 62.3542H11.3837L12.3039 63.4964H12.6671V62.3542H12.7862V63.4964H13.1494L14.0696 62.3542H14.2149L13.2543 63.5509L14.3117 64.8525H14.1624L13.1494 63.6094Z"
        fill="black" stroke="black" stroke-width="0.0572085" stroke-miterlimit="10" />
    <path
        d="M16.8238 64.7415V65.3953H16.7128V64.8545H14.485V65.3953H14.374V64.7415H14.5556C14.8321 64.6083 14.9027 64.2774 15.0763 62.3563H16.5453V64.7415H16.8238ZM14.7151 64.7415H16.4283V62.4673H15.1832C15.0399 64.116 14.9633 64.5639 14.7151 64.7415Z"
        fill="black" stroke="black" stroke-width="0.0572085" stroke-miterlimit="10" />
    <path
        d="M18.9829 62.3542L18.1556 64.1179C17.8731 64.7253 17.7237 64.8605 17.3464 64.8605H17.2152V64.7495H17.3544C17.6571 64.7495 17.7661 64.6507 18.0042 64.1724L17.0215 62.3563H17.1567L18.0668 64.0412L18.8578 62.3563H18.9829V62.3542Z"
        fill="black" stroke="black" stroke-width="0.0572085" stroke-miterlimit="10" />
    <path
        d="M21.2493 62.3542V64.8525H21.1322V63.6054H19.534V64.8525H19.417V62.3542H19.534V63.4924H21.1322V62.3542H21.2493Z"
        fill="black" stroke="black" stroke-width="0.0572085" stroke-miterlimit="10" />
    <path
        d="M23.5288 64.1301H22.1546L21.8458 64.8545H21.7207L22.7801 62.3563H22.881L23.9707 64.8545H23.8436L23.5288 64.1301ZM22.199 64.0191H23.4824L22.8326 62.5238L22.199 64.0191Z"
        fill="black" stroke="black" stroke-width="0.0572085" stroke-miterlimit="10" />
    <path
        d="M26.0679 63.1049C26.0679 63.5368 25.7329 63.8576 25.2829 63.8576H24.5585V64.8525H24.4414V62.3542H25.2829C25.7289 62.3542 26.0679 62.6751 26.0679 63.1049ZM25.9488 63.1049C25.9488 62.7417 25.6643 62.4693 25.2788 62.4693H24.5585V63.7446H25.2788C25.6643 63.7446 25.9488 63.4702 25.9488 63.1049Z"
        fill="black" stroke="black" stroke-width="0.0572085" stroke-miterlimit="10" />
    <path
        d="M26.3945 63.6075C26.3945 62.8749 26.9313 62.318 27.682 62.318C28.4326 62.318 28.9694 62.8709 28.9694 63.6075C28.9694 64.34 28.4326 64.8909 27.682 64.8909C26.9313 64.8909 26.3945 64.338 26.3945 63.6075ZM28.8524 63.6075C28.8524 62.9375 28.364 62.433 27.682 62.433C26.9999 62.433 26.5116 62.9395 26.5116 63.6075C26.5116 64.2714 26.9999 64.7758 27.682 64.7758C28.364 64.7758 28.8524 64.2734 28.8524 63.6075Z"
        fill="black" stroke="black" stroke-width="0.0572085" stroke-miterlimit="10" />
    <path
        d="M31.5689 64.7415V65.3953H31.4579V64.8545H29.2301V65.3953H29.1191V64.7415H29.3008C29.5772 64.6083 29.6478 64.2774 29.8214 62.3563H31.2904V64.7415H31.5689ZM29.4602 64.7415H31.1734V62.4673H29.9283C29.7851 64.116 29.7104 64.5639 29.4602 64.7415Z"
        fill="black" stroke="black" stroke-width="0.0572085" stroke-miterlimit="10" />
    <path
        d="M33.928 62.3542V64.8525H33.8109V63.6054H32.2127V64.8525H32.0957V62.3542H32.2127V63.4924H33.8109V62.3542H33.928Z"
        fill="black" stroke="black" stroke-width="0.0572085" stroke-miterlimit="10" />
    <path
        d="M36.35 64.1018C36.35 64.5316 36.011 64.8525 35.563 64.8525H34.6953V62.3542H34.8124V63.3471H35.563C36.015 63.3471 36.35 63.6679 36.35 64.1018ZM36.231 64.0998C36.231 63.7305 35.9444 63.456 35.557 63.456H34.8124V64.7395H35.557C35.9424 64.7415 36.231 64.467 36.231 64.0998ZM36.9393 62.3542V64.8525H36.8222V62.3542H36.9393Z"
        fill="black" stroke="black" stroke-width="0.0572085" stroke-miterlimit="10" />
    <path
        d="M39.0893 64.7395V64.8525H37.707V62.3542H39.051V62.4673H37.8241V63.4924H38.9582V63.6034H37.8241V64.7395H39.0893Z"
        fill="black" stroke="black" stroke-width="0.0572085" stroke-miterlimit="10" />
    <path d="M42.3567 62.3542V64.8525H42.2377V62.4652H40.7626V64.8525H40.6455V62.3542H42.3567Z"
        fill="black" stroke="black" stroke-width="0.0572085" stroke-miterlimit="10" />
    <path
        d="M44.9363 62.3543V64.8525H44.8192V62.4653H43.6125L43.4914 64.1725C43.4591 64.6225 43.2392 64.8525 42.8437 64.8525H42.7852V64.7355H42.8437C43.1665 64.7355 43.3441 64.5478 43.3724 64.1705L43.5035 62.3523H44.9363V62.3543Z"
        fill="black" stroke="black" stroke-width="0.0572085" stroke-miterlimit="10" />
    <path
        d="M47.2153 64.1301H45.8411L45.5323 64.8545H45.4072L46.4666 62.3563H46.5675L47.6572 64.8545H47.5301L47.2153 64.1301ZM45.8875 64.0191H47.1709L46.5211 62.5238L45.8875 64.0191Z"
        fill="black" stroke="black" stroke-width="0.0572085" stroke-miterlimit="10" />
    <path
        d="M49.3354 62.4673H48.5202V64.8545H48.4031V62.4673H47.5879V62.3542H49.3334V62.4673H49.3354Z"
        fill="black" stroke="black" stroke-width="0.0572085" stroke-miterlimit="10" />
    <path
        d="M51.1811 64.7395V64.8525H49.7988V62.3542H51.1428V62.4673H49.9159V63.4924H51.0499V63.6034H49.9159V64.7395H51.1811Z"
        fill="black" stroke="black" stroke-width="0.0572085" stroke-miterlimit="10" />
    <path
        d="M53.375 63.6094H53.0117V64.8525H52.8927V63.6094H52.5295L51.5185 64.8525H51.3691L52.4265 63.5509L51.464 62.3542H51.6093L52.5295 63.4964H52.8927V62.3542H53.0117V63.4964H53.375L54.2951 62.3542H54.4404L53.4779 63.5509L54.5353 64.8525H54.386L53.375 63.6094Z"
        fill="black" stroke="black" stroke-width="0.0572085" stroke-miterlimit="10" />
    <path
        d="M56.7949 62.3542V64.8525H56.6779V62.5883L55.0211 64.8525H54.9404V62.3542H55.0575V64.6164L56.7122 62.3542H56.7949Z"
        fill="black" stroke="black" stroke-width="0.0572085" stroke-miterlimit="10" />
    <path
        d="M60.0825 64.1301H58.7083L58.3995 64.8545H58.2744L59.3338 62.3563H59.4347L60.5244 64.8545H60.3973L60.0825 64.1301ZM58.7527 64.0191H60.0361L59.3863 62.5238L58.7527 64.0191Z"
        fill="black" stroke="black" stroke-width="0.0572085" stroke-miterlimit="10" />
    <path
        d="M62.2208 62.4774V62.5158L61.2623 64.8546H61.1372L62.0735 62.5844H60.6973V62.4794H62.2208V62.4774Z"
        fill="black" stroke="black" stroke-width="0.0572085" stroke-miterlimit="10" />
    <defs>
        <linearGradient id="paint0_linear_160_630" x1="55.9717" y1="34.3638" x2="6.19485"
            y2="34.3638" gradientUnits="userSpaceOnUse">
            <stop stop-color="#8F1826" />
            <stop offset="0.113" stop-color="#A31A2C" />
            <stop offset="0.3116" stop-color="#C01B34" />
            <stop offset="0.5198" stop-color="#D61B3A" />
            <stop offset="0.7414" stop-color="#E51A3D" />
            <stop offset="1" stop-color="#ED193F" />
        </linearGradient>
        <linearGradient id="paint1_linear_160_630" x1="45.357" y1="34.3638" x2="84.4991"
            y2="34.3638" gradientUnits="userSpaceOnUse">
            <stop stop-color="#D5C928" />
            <stop offset="0.3124" stop-color="#DCD02C" />
            <stop offset="0.8259" stop-color="#F2E440" />
            <stop offset="1" stop-color="#FBEF4A" />
        </linearGradient>
    </defs>
</svg>